<?xml version="1.0" encoding="UTF-8" standalone="no"?>
<svg
   version="1.1"
   width="87.99945"
   height="88.00142"
   viewBox="0,0,87.99945,88.00142"
   id="svg16"
   sodipodi:docname="dango.svg"
   xml:space="preserve"
   inkscape:version="1.2.2 (b0a84865, 2022-12-01)"
   xmlns:inkscape="http://www.inkscape.org/namespaces/inkscape"
   xmlns:sodipodi="http://sodipodi.sourceforge.net/DTD/sodipodi-0.dtd"
   xmlns="http://www.w3.org/2000/svg"
   xmlns:svg="http://www.w3.org/2000/svg"><defs
     id="defs20" /><sodipodi:namedview
     id="namedview18"
     pagecolor="#505050"
     bordercolor="#eeeeee"
     borderopacity="1"
     inkscape:showpageshadow="0"
     inkscape:pageopacity="0"
     inkscape:pagecheckerboard="0"
     inkscape:deskcolor="#505050"
     showgrid="false"
     inkscape:zoom="0.46145955"
     inkscape:cx="536.3417"
     inkscape:cy="290.38298"
     inkscape:window-width="1440"
     inkscape:window-height="776"
     inkscape:window-x="-39"
     inkscape:window-y="44"
     inkscape:window-maximized="0"
     inkscape:current-layer="g12" /><!-- This icon is based on Twemoji https://twemoji.twitter.com/ --><!-- License: CC-BY 4.0 https://creativecommons.org/licenses/by/4.0/ --><g
     transform="translate(-196.00028,-135.99929)"
     id="g14"><g
       data-paper-data="{&quot;isPaintingLayer&quot;:true}"
       fill-rule="nonzero"
       stroke="none"
       stroke-width="1"
       stroke-linecap="butt"
       stroke-linejoin="miter"
       stroke-miterlimit="10"
       stroke-dasharray="none"
       stroke-dashoffset="0"
       style="mix-blend-mode:normal"
       id="g12"
       transform="translate(-20.186706,237.19379)"><g
         opacity="1"
         id="g23"
         style="clip-rule:evenodd;fill-rule:nonzero;stroke-linecap:round;stroke-linejoin:round;fill:#1a1a1a"
         transform="matrix(0.22789973,0,0,0.22789973,114.30381,-132.62739)">
<path
   d="m 711.664,260.72 c 0,8.79 -7.146,15.936 -15.935,15.936 -8.79,0 -15.936,-7.146 -15.936,-15.936 0,-8.789 7.146,-15.935 15.936,-15.935 8.789,0 15.935,7.146 15.935,15.935 z"
   fill="#ffffff"
   fill-rule="nonzero"
   opacity="1"
   stroke="none"
   id="path15"
   style="fill:#1a1a1a" />
<path
   d="m 613.671,286.357 c -1.793,0.274 -3.386,1.27 -4.382,2.789 l -50.994,76.49 c -1.992,2.963 -1.17,6.972 1.793,8.964 2.963,1.992 6.972,1.17 8.964,-1.793 l 45.814,-68.722 42.883,60.139 c 1.096,2.266 3.411,3.66 5.926,3.585 2.515,-0.075 4.756,-1.618 5.702,-3.934 0.971,-2.34 0.473,-5.005 -1.27,-6.822 l -11.808,-16.515 c 0.074,-0.125 0.149,-0.274 0.199,-0.399 l 15.736,-18.126 39.441,51.192 c 2.191,2.764 6.224,3.188 8.963,0.996 2.764,-2.191 3.187,-6.224 0.996,-8.963 L 677.413,307.87 c -1.344,-1.693 -3.436,-2.59 -5.577,-2.391 -1.619,0.175 -3.113,0.947 -4.183,2.192 l -19.123,22.11 -28.684,-40.635 c -1.345,-2.042 -3.76,-3.113 -6.175,-2.789 z m -50.561,76.522 c -3.51,0.324 -6.1,3.461 -5.776,6.972 0.323,3.511 3.461,6.1 6.971,5.776 h 152.982 c 2.29,0.025 4.432,-1.17 5.602,-3.162 1.145,-1.992 1.145,-4.432 0,-6.424 -1.17,-1.992 -3.312,-3.187 -5.602,-3.162 H 564.305 c -0.199,0 -0.398,0 -0.597,0 -0.199,0 -0.399,0 -0.598,0 z m -1.42,19.163 c -3.511,0.323 -6.1,3.461 -5.777,6.972 0.324,3.51 3.461,6.1 6.972,5.776 h 152.981 c 2.291,0.025 4.432,-1.17 5.603,-3.162 1.145,-1.992 1.145,-4.432 0,-6.424 -1.171,-1.992 -3.312,-3.187 -5.603,-3.162 H 562.885 c -0.199,0 -0.398,0 -0.597,0 -0.2,0 -0.399,0 -0.598,0 z"
   fill="#ffffff"
   fill-rule="nonzero"
   opacity="1"
   stroke="none"
   id="path17"
   style="fill:#1a1a1a" />
<path
   d="m 637.689,325.409 7.612,-8.769 11.124,14.439 9.097,-9.068 -15.041,-19.513 c -1.345,-1.694 -3.437,-2.59 -5.578,-2.391 -1.618,0.175 -3.112,0.946 -4.183,2.191 l -11.083,12.815 z"
   fill="#ffffff"
   fill-rule="nonzero"
   opacity="1"
   stroke="none"
   id="path19"
   style="fill:#1a1a1a" />
<path
   d="m 613.671,286.357 c -1.793,0.274 -3.386,1.27 -4.382,2.789 l -50.994,76.49 c -1.992,2.963 -1.17,6.972 1.793,8.964 2.963,1.992 6.972,1.17 8.964,-1.793 l 45.814,-68.722 42.883,60.139 c 1.096,2.266 3.411,3.66 5.926,3.585 2.515,-0.075 4.756,-1.618 5.702,-3.934 0.971,-2.34 0.473,-5.005 -1.27,-6.822 l -11.808,-16.515 c 0.074,-0.125 0.149,-0.274 0.199,-0.399 l 15.736,-18.126 39.441,51.192 c 2.191,2.764 6.224,3.188 8.963,0.996 2.764,-2.191 3.187,-6.224 0.996,-8.963 L 677.413,307.87 c -1.344,-1.693 -3.436,-2.59 -5.577,-2.391 -1.619,0.175 -3.113,0.947 -4.183,2.192 l -19.123,22.11 -28.684,-40.635 c -1.345,-2.042 -3.76,-3.113 -6.175,-2.789 z"
   fill="#ffffff"
   fill-rule="nonzero"
   opacity="1"
   stroke="none"
   id="path21"
   style="fill:#1a1a1a" />
</g></g></g></svg>
